<svg xmlns="http://www.w3.org/2000/svg" width="189" height="66" viewBox="0 0 189 66" fill="none"><path d="M20.8166 30.9993H22.2276C22.7819 30.9995 23.3229 30.8301 23.7781 30.5139C24.2333 30.1977 24.5809 29.7498 24.7742 29.2304L28.0005 20.5634V15.7896C27.9998 14.998 27.6858 14.239 27.1271 13.6783C26.5683 13.1176 25.8103 12.801 25.0188 12.7976H13.4319V12.8928C14.0734 13.0594 14.6414 13.4342 15.0469 13.9585C15.4523 14.4828 15.6722 15.1268 15.672 15.7896V47.9497C15.6717 48.6123 15.4517 49.2562 15.0463 49.7804C14.6409 50.3045 14.0732 50.6795 13.4319 50.8464V50.9417H25.0188C25.8126 50.9417 26.5739 50.6265 27.1354 50.0655C27.6969 49.5045 28.0127 48.7435 28.0134 47.9497V43.1965L24.7613 34.5114C24.5709 33.9919 24.2255 33.5434 23.7719 33.2266C23.3183 32.9098 22.7784 32.7399 22.2251 32.7399H20.8166C20.5858 32.7399 20.3644 32.6482 20.2012 32.485C20.038 32.3218 19.9463 32.1005 19.9463 31.8696C19.9463 31.6388 20.038 31.4174 20.2012 31.2542C20.3644 31.091 20.5858 30.9993 20.8166 30.9993Z" fill="white"></path><path d="M25.0187 51.0601H13.4318C13.4009 51.0595 13.3714 51.0467 13.3497 51.0246C13.3281 51.0024 13.3159 50.9727 13.3159 50.9417V50.8464C13.3157 50.8205 13.3243 50.7952 13.3401 50.7746C13.356 50.7541 13.3783 50.7395 13.4035 50.7331C14.0198 50.5723 14.5652 50.2115 14.9543 49.7073C15.3434 49.2031 15.5542 48.584 15.5535 47.9471V15.7896C15.5541 15.153 15.3432 14.5343 14.9541 14.0305C14.5649 13.5267 14.0195 13.1664 13.4035 13.0061C13.3783 12.9998 13.356 12.9852 13.3401 12.9646C13.3243 12.9441 13.3157 12.9188 13.3159 12.8929V12.7976C13.3156 12.7822 13.3183 12.7668 13.324 12.7525C13.3297 12.7381 13.3382 12.725 13.349 12.714C13.3598 12.7029 13.3726 12.6942 13.3869 12.6882C13.4011 12.6822 13.4164 12.6791 13.4318 12.6791H25.0187C25.8437 12.6798 26.6347 13.0077 27.2183 13.5908C27.8019 14.1739 28.1304 14.9646 28.1317 15.7896V20.5531C28.1344 20.5667 28.1344 20.5807 28.1317 20.5943L24.8874 29.2613C24.6849 29.804 24.3219 30.2721 23.8467 30.6033C23.3716 30.9345 22.8068 31.113 22.2276 31.1152H20.8165C20.6165 31.1152 20.4246 31.1947 20.2831 31.3362C20.1416 31.4777 20.0621 31.6696 20.0621 31.8696C20.0621 32.0697 20.1416 32.2616 20.2831 32.4031C20.4246 32.5446 20.6165 32.6241 20.8165 32.6241H22.2276C22.8041 32.6265 23.3662 32.8047 23.8388 33.1351C24.3113 33.4655 24.6717 33.9322 24.872 34.4728L28.1086 43.1553C28.1108 43.1689 28.1108 43.1828 28.1086 43.1965V47.9471C28.1079 48.7685 27.7829 49.5565 27.2043 50.1395C26.6256 50.7225 25.8401 51.0534 25.0187 51.0601ZM13.8644 50.8258H25.0187C25.7818 50.8245 26.5132 50.5207 27.0528 49.9812C27.5923 49.4416 27.8961 48.7102 27.8974 47.9471V43.2197L24.6531 34.5527C24.4701 34.0564 24.1396 33.628 23.706 33.3252C23.2724 33.0223 22.7565 32.8594 22.2276 32.8584H20.8165C20.5543 32.8584 20.3028 32.7542 20.1174 32.5688C19.932 32.3834 19.8278 32.1319 19.8278 31.8696C19.8278 31.6074 19.932 31.3559 20.1174 31.1705C20.3028 30.9851 20.5543 30.8809 20.8165 30.8809H22.2276C22.7573 30.8796 23.2742 30.7171 23.7093 30.4149C24.1444 30.1127 24.4772 29.6852 24.6634 29.1892L27.8871 20.5325V15.7896C27.8858 15.0285 27.5834 14.2989 27.046 13.7601C26.5086 13.2212 25.7798 12.9169 25.0187 12.9135H13.8541C14.4233 13.1488 14.9098 13.5477 15.2522 14.0597C15.5946 14.5717 15.7774 15.1737 15.7775 15.7896V47.9471C15.7779 48.5635 15.5953 49.1661 15.2529 49.6785C14.9105 50.191 14.4237 50.5903 13.8541 50.8258H13.8644Z" fill="#3C3C3B"></path><path d="M33.1142 12.7976C32.4621 12.7974 31.8255 12.9966 31.2898 13.3685C30.7541 13.7403 30.3449 14.2671 30.1171 14.8781L28.0031 20.5428L24.7768 29.2201C24.5834 29.7395 24.2359 30.1874 23.7807 30.5036C23.3255 30.8198 22.7845 30.9892 22.2302 30.989H35.4573C36.046 30.9881 36.6205 30.8077 37.104 30.4719C37.5875 30.136 37.9572 29.6607 38.1635 29.1094L43.5939 14.5588C43.7277 14.1847 43.9436 13.8453 44.2256 13.5655C44.5076 13.2857 44.8487 13.0726 45.2238 12.9418V12.7873L33.1142 12.7976Z" fill="url(#paint0_linear_2016_160)"></path><path d="M35.4548 31.1152H22.2277C22.2108 31.1177 22.1936 31.1165 22.1773 31.1118C22.1609 31.1071 22.1458 31.0989 22.1329 31.0877C22.12 31.0766 22.1096 31.0629 22.1026 31.0474C22.0955 31.0319 22.0918 31.0151 22.0918 30.998C22.0918 30.981 22.0955 30.9642 22.1026 30.9487C22.1096 30.9332 22.12 30.9195 22.1329 30.9083C22.1458 30.8972 22.1609 30.889 22.1773 30.8843C22.1936 30.8795 22.2108 30.8784 22.2277 30.8809C22.7574 30.8796 23.2743 30.7171 23.7094 30.4149C24.1445 30.1127 24.4773 29.6852 24.6635 29.1892L30.0089 14.8369C30.2463 14.2045 30.6705 13.6593 31.2252 13.2739C31.7799 12.8885 32.4387 12.681 33.1142 12.6791H45.2161C45.2317 12.6788 45.2473 12.6816 45.2618 12.6874C45.2764 12.6933 45.2896 12.702 45.3006 12.713C45.3117 12.7241 45.3204 12.7373 45.3262 12.7518C45.3321 12.7664 45.3349 12.7819 45.3345 12.7976V12.9521C45.3343 12.9765 45.3265 13.0003 45.3122 13.0201C45.2979 13.0399 45.2778 13.0548 45.2547 13.0628C44.8968 13.1894 44.5713 13.3935 44.3016 13.6606C44.0318 13.9277 43.8245 14.2511 43.6943 14.6077L38.2665 29.1609C38.0507 29.7329 37.6664 30.226 37.1644 30.575C36.6623 30.924 36.0662 31.1123 35.4548 31.1152ZM23.3529 30.8809H35.4548C36.0192 30.8794 36.5698 30.7061 37.0334 30.3842C37.497 30.0622 37.8516 29.6068 38.0502 29.0785L43.4806 14.5279C43.6093 14.1692 43.8104 13.8409 44.0712 13.5632C44.3321 13.2854 44.6473 13.0643 44.9972 12.9135H33.1142C32.4863 12.9149 31.8736 13.1076 31.358 13.4659C30.8423 13.8243 30.4481 14.3312 30.2278 14.9193L24.8875 29.2613C24.7538 29.6213 24.5487 29.9506 24.2845 30.2293C24.0204 30.5081 23.7026 30.7306 23.3503 30.8835L23.3529 30.8809Z" fill="#3C3C3B"></path><path d="M43.5809 49.165L38.2355 34.823C38.0062 34.2128 37.5967 33.6867 37.0614 33.3146C36.5261 32.9426 35.8903 32.7421 35.2384 32.7399H22.2275C22.7804 32.7404 23.3198 32.9105 23.7729 33.2273C24.226 33.5441 24.5709 33.9923 24.7612 34.5114L28.0004 43.1965L30.189 49.062C30.3948 49.6138 30.7642 50.0895 31.2479 50.4255C31.7316 50.7614 32.3063 50.9415 32.8952 50.9417H45.2185V50.7872C44.8434 50.6533 44.5023 50.4385 44.2193 50.1582C43.9364 49.8779 43.7184 49.5389 43.5809 49.165Z" fill="url(#paint1_linear_2016_160)"></path><path d="M45.2212 51.0601H32.8978C32.2856 51.058 31.6885 50.8696 31.1859 50.5201C30.6832 50.1706 30.2987 49.6764 30.0835 49.1032L24.6531 34.5527C24.4701 34.0564 24.1396 33.628 23.706 33.3252C23.2724 33.0223 22.7565 32.8594 22.2276 32.8584C22.1964 32.8577 22.1666 32.8451 22.1446 32.823C22.1225 32.8009 22.1098 32.7712 22.1091 32.74C22.1098 32.709 22.1226 32.6795 22.1447 32.6579C22.1669 32.6362 22.1966 32.6241 22.2276 32.6241H35.2384C35.9141 32.6262 36.5732 32.8337 37.1283 33.219C37.6834 33.6044 38.1081 34.1494 38.3463 34.7818L43.6891 49.1341C43.822 49.4913 44.0318 49.8148 44.3037 50.0818C44.5756 50.3488 44.9029 50.5527 45.2624 50.6791C45.2854 50.6868 45.3054 50.7017 45.3193 50.7217C45.3332 50.7416 45.3403 50.7655 45.3396 50.7898V50.9443C45.3389 50.9752 45.3262 51.0047 45.304 51.0264C45.2819 51.048 45.2521 51.0602 45.2212 51.0601ZM23.3476 32.8584C23.6981 33.0098 24.014 33.2311 24.2761 33.5086C24.5382 33.7862 24.7409 34.1143 24.872 34.4728L30.3024 49.0209C30.5013 49.549 30.856 50.0042 31.3195 50.3261C31.7831 50.648 32.3335 50.8214 32.8978 50.8233H44.9997C44.6493 50.6716 44.3332 50.4506 44.0703 50.1736C43.8075 49.8966 43.6034 49.5693 43.4702 49.2114L38.1248 34.8642C37.9045 34.2762 37.5103 33.7692 36.9946 33.4109C36.4789 33.0525 35.8663 32.8598 35.2384 32.8584H23.3476Z" fill="#3C3C3B"></path><path d="M57.4619 19.2013V24.8222H56.1745V20.2595H53.6383V24.8222H52.3508V19.2013H57.4619Z" fill="#010101"></path><path d="M63.956 21.2406C63.956 22.4919 63.0162 23.2721 61.515 23.2721H60.3821V24.8171H59.0818V19.2013H61.515C63.0162 19.2013 63.956 19.9789 63.956 21.2406ZM62.6377 21.2406C62.6377 20.6226 62.236 20.2595 61.4429 20.2595H60.3821V22.2113H61.4429C62.236 22.2113 62.6377 21.8508 62.6377 21.2406Z" fill="#010101"></path><path d="M65.0862 19.2013H66.3736V22.8627L69.0566 19.2013H70.2771V24.8222H68.9897V21.1685L66.3144 24.8222H65.0862V19.2013Z" fill="#010101"></path><path d="M79.8815 19.2013V24.8222H78.5941V20.2595H76.0553V24.8222H74.7678V19.2013H79.8815Z" fill="#010101"></path><path d="M81.1226 22.0105C81.1226 20.3419 82.4229 19.1034 84.1995 19.1034C85.9762 19.1034 87.2739 20.3265 87.2739 22.0105C87.2739 23.6944 85.9659 24.9175 84.1995 24.9175C82.4332 24.9175 81.1226 23.6738 81.1226 22.0105ZM85.9582 22.0105C85.9496 21.6646 85.8391 21.329 85.6407 21.0456C85.4423 20.7622 85.1648 20.5436 84.8427 20.4172C84.5207 20.2908 84.1686 20.2622 83.8304 20.3349C83.4922 20.4076 83.1829 20.5785 82.9413 20.8261C82.6997 21.0737 82.5365 21.387 82.4722 21.7269C82.4078 22.0668 82.4451 22.4181 82.5794 22.7369C82.7137 23.0558 82.939 23.3279 83.2272 23.5192C83.5154 23.7106 83.8536 23.8128 84.1995 23.8129C84.4359 23.8192 84.6711 23.7766 84.8903 23.6877C85.1094 23.5988 85.3078 23.4655 85.473 23.2962C85.6381 23.1269 85.7665 22.9253 85.85 22.7041C85.9335 22.4828 85.9703 22.2466 85.9582 22.0105Z" fill="#010101"></path><path d="M94.2828 23.7614V25.9912H93.0804V24.8222H89.1125V25.9912H87.9075V23.7665H88.1315C88.8627 23.7433 89.0481 22.5383 89.1048 20.9651L89.1692 19.2064H93.5104V23.7614H94.2828ZM89.6996 23.7614H92.223V20.2595H90.2944L90.2712 21.0809C90.212 22.2757 90.0832 23.3056 89.6996 23.7614Z" fill="#010101"></path><path d="M101.492 23.7614V25.9912H100.287V24.8222H96.3117V25.9912H95.1067V23.7665H95.3307C96.062 23.7433 96.2448 22.5383 96.3014 20.9651L96.3658 19.2064H100.686V23.7614H101.492ZM96.9065 23.7614H99.4196V20.2595H97.4936L97.4678 21.0809C97.4138 22.2757 97.285 23.3056 96.8988 23.7614H96.9065Z" fill="#010101"></path><path d="M106.979 23.7768V24.8222H102.628V19.2013H106.876V20.2441H103.921V21.4646H106.531V22.4765H103.921V23.7768H106.979Z" fill="#010101"></path><path d="M113.193 21.2406C113.193 22.4919 112.253 23.2721 110.752 23.2721H109.619V24.8171H108.318V19.2013H110.762C112.253 19.2013 113.193 19.9789 113.193 21.2406ZM111.877 21.2406C111.877 20.6226 111.475 20.2595 110.68 20.2595H109.619V22.2113H110.68C111.475 22.2113 111.877 21.8508 111.877 21.2406Z" fill="#010101"></path><path d="M119.282 22.5563H118.463V24.8222H117.176V22.5563H116.342L115.08 24.8222H113.594L115.276 21.8714L113.692 19.191H115.067L116.326 21.462H117.199V19.2013H118.486V21.4723H119.321L120.59 19.2013H121.963L120.366 21.8714L122.045 24.8119H120.546L119.282 22.5563Z" fill="#010101"></path><path d="M125.307 22.5563H124.409V24.8222H123.121V19.2013H124.409V21.4723H125.341L126.819 19.2013H128.191L126.353 21.9152L128.248 24.8222H126.77L125.307 22.5563Z" fill="#010101"></path><path d="M133.658 23.7768V24.8222H129.301V19.2013H133.55V20.2441H130.588V21.4646H133.199V22.4765H130.588V23.7768H133.658Z" fill="#010101"></path><path d="M57.4619 28.839V34.4625H56.1745V29.8999H53.6383V34.4625H52.3508V28.839H57.4619Z" fill="#010101"></path><path d="M63.956 30.8835C63.956 32.1374 63.0162 32.9176 61.515 32.9176H60.3821V34.4625H59.0818V28.839H61.515C63.0162 28.839 63.956 29.6192 63.956 30.8835ZM62.6377 30.8835C62.6377 30.2655 62.236 29.905 61.4429 29.905H60.3821V31.8568H61.4429C62.236 31.8516 62.6377 31.4911 62.6377 30.8835Z" fill="#010101"></path><path d="M69.4377 33.4171V34.4625H65.0862V28.839H69.3347V29.8844H66.3788V31.1049H68.9897V32.1168H66.3788V33.4043L69.4377 33.4171Z" fill="#010101"></path><path d="M75.1257 32.8867C75.1257 33.9475 73.9696 34.5578 72.6204 34.5578C71.8347 34.559 71.062 34.3568 70.3777 33.9707L70.7794 33.0386C71.2907 33.3389 71.8729 33.4971 72.4659 33.4969C73.2049 33.4969 73.8074 33.224 73.8074 32.7013C73.8074 32.2765 73.4238 32.0679 72.8367 32.0679H71.4643V31.0894H72.7388C73.2693 31.0894 73.5757 30.8551 73.5757 30.4869C73.5757 30.0286 73.0761 29.7866 72.4427 29.7866C71.914 29.7917 71.3951 29.9298 70.9339 30.1882L70.5399 29.1763C71.1371 28.8747 71.7969 28.7177 72.4659 28.718C73.7688 28.718 74.8914 29.3128 74.8914 30.3324C74.8917 30.5903 74.8145 30.8423 74.6699 31.0557C74.5253 31.2692 74.3199 31.4343 74.0803 31.5297C74.3787 31.6111 74.6422 31.7877 74.8309 32.0327C75.0197 32.2776 75.1232 32.5775 75.1257 32.8867Z" fill="#010101"></path><path d="M76.4078 28.839H77.6953V32.5005L80.3783 28.839H81.6014V34.4625H80.3139V30.8062L77.6335 34.4625H76.4053L76.4078 28.839Z" fill="#010101"></path><path d="M89.0557 33.4017V35.6264H87.8455V34.4625H83.8828V35.6264H82.6777V33.4017H82.9017C83.633 33.3759 83.8158 32.1735 83.8725 30.5977L83.9368 28.839H88.2575V33.4017H89.0557ZM84.4698 33.4017H86.9829V29.8999H85.0569L85.0312 30.7187C84.9848 31.9134 84.8561 32.9434 84.4698 33.4017Z" fill="#010101"></path><path d="M94.5402 33.4171V34.4625H90.1887V28.839H94.4373V29.8844H91.4916V31.1049H94.1025V32.1168H91.4916V33.4043L94.5402 33.4171Z" fill="#010101"></path><path d="M101.044 28.839V34.4625H99.744V32.1452H97.1897V34.4625H95.8894V28.839H97.1897V31.056H99.744V28.839H101.044Z" fill="#010101"></path><path d="M107 29.8999H105.198V34.4625H103.91V29.8999H102.108V28.839H106.982L107 29.8999Z" fill="#010101"></path><path d="M107.628 31.6559C107.628 29.9617 108.928 28.7489 110.679 28.7489C111.116 28.7297 111.551 28.8093 111.952 28.9819C112.353 29.1544 112.711 29.4154 112.997 29.7454L112.163 30.5178C111.991 30.3098 111.775 30.1427 111.53 30.0287C111.286 29.9147 111.019 29.8566 110.749 29.8587C110.271 29.8587 109.812 30.0486 109.474 30.3866C109.136 30.7246 108.947 31.183 108.947 31.6611C108.947 32.1391 109.136 32.5976 109.474 32.9356C109.812 33.2736 110.271 33.4635 110.749 33.4635C111.019 33.4656 111.287 33.4067 111.532 33.2912C111.776 33.1758 111.992 33.0067 112.163 32.7966L112.997 33.569C112.712 33.9011 112.355 34.1641 111.954 34.3381C111.552 34.512 111.117 34.5925 110.679 34.5733C108.928 34.5578 107.628 33.345 107.628 31.6559Z" fill="#010101"></path><path d="M116.269 32.1966H115.368V34.4625H114.081V28.839H115.368V31.1126H116.3L117.778 28.839H119.151L117.312 31.5529L119.207 34.4625H117.729L116.269 32.1966Z" fill="#010101"></path><path d="M119.606 31.6559C119.606 29.9848 120.894 28.7489 122.681 28.7489C124.468 28.7489 125.758 29.9771 125.758 31.6559C125.758 33.3347 124.447 34.5629 122.681 34.5629C120.914 34.5629 119.606 33.3218 119.606 31.6559ZM124.439 31.6559C124.431 31.3101 124.32 30.9745 124.122 30.6911C123.924 30.4077 123.646 30.1891 123.324 30.0627C123.002 29.9363 122.65 29.9076 122.312 29.9803C121.973 30.0531 121.664 30.2239 121.423 30.4715C121.181 30.7191 121.018 31.0325 120.953 31.3724C120.889 31.7123 120.926 32.0636 121.061 32.3824C121.195 32.7012 121.42 32.9733 121.708 33.1647C121.997 33.3561 122.335 33.4582 122.681 33.4583C122.917 33.4647 123.152 33.422 123.372 33.3331C123.591 33.2442 123.789 33.1109 123.954 32.9417C124.119 32.7724 124.248 32.5708 124.331 32.3495C124.415 32.1282 124.452 31.8921 124.439 31.6559Z" fill="#010101"></path><path d="M130.959 29.8999H128.284V34.4625H126.996V28.839H130.964L130.959 29.8999Z" fill="#010101"></path><path d="M131.572 31.6559C131.572 29.9848 132.872 28.7489 134.646 28.7489C136.42 28.7489 137.736 29.9771 137.736 31.6559C137.736 33.3347 136.425 34.5629 134.646 34.5629C132.867 34.5629 131.572 33.3218 131.572 31.6559ZM136.405 31.6559C136.396 31.3101 136.286 30.9745 136.087 30.6911C135.889 30.4077 135.611 30.1891 135.289 30.0627C134.967 29.9363 134.615 29.9076 134.277 29.9803C133.939 30.0531 133.63 30.2239 133.388 30.4715C133.146 30.7191 132.983 31.0325 132.919 31.3724C132.854 31.7123 132.892 32.0636 133.026 32.3824C133.16 32.7012 133.386 32.9733 133.674 33.1647C133.962 33.3561 134.3 33.4582 134.646 33.4583C134.883 33.4647 135.118 33.422 135.337 33.3331C135.556 33.2442 135.754 33.1109 135.92 32.9417C136.085 32.7724 136.213 32.5708 136.297 32.3495C136.38 32.1282 136.417 31.8921 136.405 31.6559Z" fill="#010101"></path><path d="M145.523 34.0995V34.7097H144.325V34.0917C142.422 33.9785 141.38 33.103 141.38 31.6353C141.38 30.1676 142.422 29.2896 144.325 29.1763V28.5995H145.523V29.1686C147.418 29.2819 148.463 30.1651 148.463 31.6353C148.463 33.1056 147.425 34.0042 145.523 34.0995ZM144.325 33.0695V30.1857C143.185 30.2912 142.639 30.7496 142.639 31.625C142.639 32.5005 143.241 32.9665 144.325 33.0798V33.0695ZM147.209 31.6173C147.209 30.7496 146.64 30.2835 145.523 30.1857V33.0695C146.656 32.9768 147.209 32.5005 147.209 31.6276V31.6173Z" fill="#010101"></path><path d="M149.426 31.6559C149.426 29.9848 150.726 28.7489 152.5 28.7489C154.275 28.7489 155.577 29.9771 155.577 31.6559C155.577 33.3347 154.277 34.5578 152.5 34.5578C150.724 34.5578 149.426 33.3218 149.426 31.6559ZM154.259 31.6559C154.25 31.3101 154.14 30.9745 153.942 30.6911C153.743 30.4077 153.466 30.1891 153.144 30.0627C152.822 29.9363 152.469 29.9076 152.131 29.9803C151.793 30.0531 151.484 30.2239 151.242 30.4715C151.001 30.7191 150.837 31.0325 150.773 31.3724C150.709 31.7123 150.746 32.0636 150.88 32.3824C151.015 32.7012 151.24 32.9733 151.528 33.1647C151.816 33.3561 152.154 33.4582 152.5 33.4583C152.737 33.4647 152.972 33.422 153.191 33.3331C153.41 33.2442 153.609 33.1109 153.774 32.9417C153.939 32.7724 154.067 32.5708 154.151 32.3495C154.234 32.1282 154.271 31.8921 154.259 31.6559Z" fill="#010101"></path><path d="M161.976 28.839V34.4625H160.688V32.1452H158.134V34.4625H156.831V28.839H158.134V31.056H160.688V28.839H161.976Z" fill="#010101"></path><path d="M169.433 33.4017V35.6264H168.228V34.4625H164.26V35.6264H163.055V33.4017H163.289C164.018 33.3759 164.203 32.1735 164.26 30.5977L164.324 28.839H168.645V33.4017H169.433ZM164.847 33.4017H167.36V29.8999H165.432L165.408 30.7187C165.349 31.9134 165.231 32.9434 164.847 33.4017Z" fill="#010101"></path><path d="M174.67 33.2575H172.059L171.562 34.4625H170.241L172.747 28.839H174.034L176.547 34.4625H175.182L174.67 33.2575ZM174.261 32.2687L173.367 30.111L172.476 32.2636L174.261 32.2687Z" fill="#010101"></path><path d="M54.5191 41.8344H53.6204V44.1002H52.333V38.4793H53.6204V40.7503H54.55L56.0279 38.4793H57.4029L55.5619 41.1829L57.4621 44.1002H55.9867L54.5191 41.8344Z" fill="#010101"></path><path d="M63.8991 38.4793L61.5044 42.9287C61.0384 43.7964 60.3715 44.229 59.6171 44.229C59.3026 44.2254 58.992 44.1598 58.703 44.0359L59.0145 43.0471C59.1963 43.1098 59.3863 43.1454 59.5784 43.1527C59.7387 43.1496 59.895 43.1032 60.031 43.0184C60.167 42.9336 60.2775 42.8137 60.3509 42.6712L60.3998 42.6068L58.1829 38.487H59.5733L61.0667 41.5074L62.6116 38.487L63.8991 38.4793Z" fill="#010101"></path><path d="M69.5795 38.4793V44.1002H68.292V39.5376H66.366L66.3248 40.7117C66.2527 42.921 65.9412 44.1878 64.6228 44.1878C64.4064 44.1835 64.1913 44.1541 63.9817 44.1002L64.0615 43.0008C64.1368 43.0224 64.2149 43.0328 64.2932 43.0317C64.9524 43.0317 65.1224 42.1974 65.1764 40.7606L65.2588 38.4793H69.5795Z" fill="#010101"></path><path d="M76.0501 42.1408C76.0501 43.4282 75.1823 44.1002 73.7327 44.1002H71.1938V38.4793H72.4813V40.3255H73.9129C75.2802 40.3255 76.0501 40.9254 76.0501 42.1408ZM74.742 42.1639C74.742 41.546 74.3403 41.2885 73.6657 41.2885H72.4916V43.1372H73.6657C74.3326 43.1372 74.742 42.7999 74.742 42.1639Z" fill="#010101"></path><path d="M81.0375 39.5376H79.2351V44.1002H77.9477V39.5376H76.1453V38.4793H81.0195L81.0375 39.5376Z" fill="#010101"></path><path d="M87.5081 38.4793L85.1161 42.9287C84.65 43.7964 83.9831 44.229 83.2287 44.229C82.9135 44.2251 82.6021 44.1595 82.3121 44.0359L82.6262 43.0471C82.8071 43.1096 82.9962 43.1452 83.1875 43.1527C83.3503 43.1521 83.5098 43.1069 83.6487 43.022C83.7876 42.9371 83.9006 42.8158 83.9754 42.6712L84.0243 42.6068L81.8074 38.487H83.2107L84.7041 41.5074L86.249 38.487L87.5081 38.4793Z" fill="#010101"></path><path d="M93.4201 40.5186C93.4201 41.7726 92.4829 42.5502 90.9792 42.5502H89.8488V44.0951H88.5459V38.4793H90.9792C92.4803 38.4793 93.4201 39.2569 93.4201 40.5186ZM92.1044 40.5186C92.1044 39.9006 91.7027 39.5376 90.9071 39.5376H89.8488V41.4893H90.9071C91.7078 41.4893 92.1044 41.1288 92.1044 40.5186Z" fill="#010101"></path><path d="M99.7079 38.4793V44.1002H98.4024V41.7829H95.8533V44.1002H94.553V38.4793H95.8533V40.6963H98.4024V38.4793H99.7079Z" fill="#010101"></path><path d="M106.176 42.1408C106.176 43.4282 105.308 44.1002 103.859 44.1002H101.32V38.4793H102.607V40.3255H104.036C105.406 40.3255 106.176 40.9254 106.176 42.1408ZM104.868 42.1639C104.868 41.546 104.466 41.2885 103.792 41.2885H102.62V43.1372H103.792C104.459 43.1372 104.868 42.7999 104.868 42.1639ZM106.9 38.4793H108.187V44.1002H106.9V38.4793Z" fill="#010101"></path><path d="M110.875 38.4793L112.042 40.1813L113.205 38.4793H114.73L112.86 41.1829L114.882 44.1002H113.337L112.049 42.236L110.762 44.1002H109.261L111.269 41.2241L109.389 38.4793H110.875Z" fill="#010101"></path><path d="M118.744 38.4793H120.031V42.1408L122.712 38.4793H123.932V44.1002H122.645V40.4465L119.964 44.1002H118.744V38.4793Z" fill="#010101"></path><path d="M130.707 38.4793V44.1002H129.42V41.7829H126.865V44.1002H125.565V38.4793H126.865V40.6963H129.42V38.4793H130.707Z" fill="#010101"></path><path d="M132.326 38.4793H133.614V42.1408L136.294 38.4793H137.517V44.1002H136.23V40.4465L133.549 44.1002H132.321L132.326 38.4793Z" fill="#010101"></path><path d="M145.031 43.0394V45.3027H143.834V44.1131H139.137V38.4793H140.424V43.0394H142.948V38.4793H144.235V43.0394H145.031Z" fill="#010101"></path><path d="M146.166 38.4793H147.454V42.1408L150.137 38.4793H151.357V44.1002H150.07V40.4465L147.387 44.1002H146.166V38.4793Z" fill="#010101"></path><path d="M156.852 42.8952H154.244L153.744 44.1002H152.413L154.918 38.4793H156.206L158.719 44.1002H157.354L156.852 42.8952ZM156.443 41.909L155.564 39.7564L154.674 41.909H156.443Z" fill="#010101"></path><path d="M163.423 39.5376H161.621V44.1002H160.333V39.5376H158.544V38.4793H163.418L163.423 39.5376Z" fill="#010101"></path><path d="M164.494 38.4793H165.782V42.1408L168.465 38.4793H169.685V44.1002H168.398V40.4465L165.715 44.1002H164.487L164.494 38.4793Z" fill="#010101"></path><path d="M176.261 42.5193C176.261 43.4977 175.489 44.1002 174.075 44.1002H171.305V38.4793H173.923C175.224 38.4793 175.996 38.9943 175.996 39.9315C176.001 40.1936 175.928 40.4511 175.786 40.6716C175.645 40.8921 175.441 41.0656 175.2 41.17C175.508 41.2337 175.783 41.404 175.977 41.6509C176.171 41.8978 176.272 42.2054 176.261 42.5193ZM172.597 40.807H173.81C174.374 40.807 174.67 40.5753 174.67 40.1247C174.67 39.674 174.374 39.4423 173.81 39.4423H172.597V40.807ZM174.943 42.4137C174.943 41.9399 174.631 41.7159 174.029 41.7159H172.597V43.1372H174.029C174.631 43.1372 174.943 42.9029 174.943 42.4137Z" fill="#010101"></path><defs><linearGradient id="paint0_linear_2016_160" x1="33.7244" y1="11.8062" x2="33.7244" y2="30.904" gradientUnits="userSpaceOnUse"><stop offset="0.04" stop-color="#3C61AA"></stop><stop offset="0.06" stop-color="#3878BB"></stop><stop offset="0.1" stop-color="#3590CC"></stop><stop offset="0.14" stop-color="#32A1D8"></stop><stop offset="0.18" stop-color="#31ABE0"></stop><stop offset="0.23" stop-color="#30AEE2"></stop><stop offset="0.37" stop-color="#3399D3"></stop><stop offset="0.61" stop-color="#387ABC"></stop><stop offset="0.81" stop-color="#3B68AF"></stop><stop offset="0.96" stop-color="#3C61AA"></stop></linearGradient><linearGradient id="paint1_linear_2016_160" x1="33.7243" y1="51.6781" x2="33.7243" y2="32.7631" gradientUnits="userSpaceOnUse"><stop offset="0.09" stop-color="#E94B4D"></stop><stop offset="0.13" stop-color="#DC4344"></stop><stop offset="0.2" stop-color="#CC393A"></stop><stop offset="0.28" stop-color="#C33334"></stop><stop offset="0.4" stop-color="#C03132"></stop><stop offset="0.62" stop-color="#D6373B"></stop><stop offset="0.84" stop-color="#E83B42"></stop><stop offset="0.88" stop-color="#E33A41"></stop><stop offset="0.92" stop-color="#D6383D"></stop><stop offset="0.97" stop-color="#C03336"></stop><stop offset="1" stop-color="#A92F2F"></stop></linearGradient></defs></svg>